<?xml version="1.0" encoding="UTF-8" standalone="no"?>
<!DOCTYPE svg PUBLIC "-//W3C//DTD SVG 1.1//EN"
 "http://www.w3.org/Graphics/SVG/1.1/DTD/svg11.dtd">
<!-- Generated by graphviz version 12.1.1 (20240910.0053)
 -->
<!-- Title: INFRA Pages: 1 -->
<svg width="149pt" height="188pt"
 viewBox="0.00 0.00 148.50 188.00" xmlns="http://www.w3.org/2000/svg" xmlns:xlink="http://www.w3.org/1999/xlink">
<g id="graph0" class="graph" transform="scale(1 1) rotate(0) translate(4 184)">
<title>INFRA</title>
<polygon fill="white" stroke="none" points="-4,4 -4,-184 144.5,-184 144.5,4 -4,4"/>
<!-- mysql -->
<g id="node1" class="node">
<title>mysql</title>
<path fill="#ffcfb3" stroke="black" stroke-width="2" d="M126.09,-65.45C126.09,-69.07 101.06,-72 70.25,-72 39.44,-72 14.41,-69.07 14.41,-65.45 14.41,-65.45 14.41,-6.55 14.41,-6.55 14.41,-2.93 39.44,0 70.25,0 101.06,0 126.09,-2.93 126.09,-6.55 126.09,-6.55 126.09,-65.45 126.09,-65.45"/>
<path fill="none" stroke="black" stroke-width="2" d="M126.09,-65.45C126.09,-61.84 101.06,-58.91 70.25,-58.91 39.44,-58.91 14.41,-61.84 14.41,-65.45"/>
<text text-anchor="middle" x="70.25" y="-40.2" font-family="Arial" font-size="14.00">mysql</text>
<text text-anchor="middle" x="70.25" y="-23.4" font-family="Arial" font-size="14.00">(docker::mysql)</text>
</g>
<!-- springboot&#45;app -->
<g id="node2" class="node">
<title>springboot&#45;app</title>
<path fill="#b7e0ff" stroke="black" stroke-width="2" d="M128.5,-180C128.5,-180 12,-180 12,-180 6,-180 0,-174 0,-168 0,-168 0,-120 0,-120 0,-114 6,-108 12,-108 12,-108 128.5,-108 128.5,-108 134.5,-108 140.5,-114 140.5,-120 140.5,-120 140.5,-168 140.5,-168 140.5,-174 134.5,-180 128.5,-180"/>
<text text-anchor="middle" x="70.25" y="-148.2" font-family="Arial" font-size="14.00">springboot&#45;app</text>
<text text-anchor="middle" x="70.25" y="-131.4" font-family="Arial" font-size="14.00">(docker::springboot)</text>
</g>
<!-- springboot&#45;app&#45;&gt;mysql -->
<g id="edge1" class="edge">
<title>springboot&#45;app&#45;&gt;mysql</title>
<path fill="none" stroke="black" d="M70.25,-107.7C70.25,-99.93 70.25,-91.57 70.25,-83.43"/>
<polygon fill="black" stroke="black" points="73.75,-83.66 70.25,-73.66 66.75,-83.66 73.75,-83.66"/>
</g>
</g>
</svg>
